HIERARCHY
ROOT SimulationBone
{
	OFFSET 0.000000 0.000000 0.000000
	CHANNELS 6 Xposition Yposition Zposition Zrotation Yrotation Xrotation 
	JOINT Hips
	{
		OFFSET 0.000000 0.000000 0.000000
		CHANNELS 6 Xposition Yposition Zposition Zrotation Yrotation Xrotation 
		JOINT LeftUpLeg
		{
			OFFSET 0.103462 1.857831 10.548496
			CHANNELS 3 Zrotation Yrotation Xrotation
			JOINT LeftLeg
			{
				OFFSET 43.500000 -0.000038 -0.000010
				CHANNELS 3 Zrotation Yrotation Xrotation
				JOINT LeftFoot
				{
					OFFSET 42.372192 0.000011 0.000010
					CHANNELS 3 Zrotation Yrotation Xrotation
					JOINT LeftToe
					{
						OFFSET 17.299999 0.000001 -0.000001
						CHANNELS 3 Zrotation Yrotation Xrotation
						End Site
						{
							OFFSET 0.000000 0.000000 0.000000
						}
					}
				}
			}
		}
		JOINT RightUpLeg
		{
			OFFSET 0.103456 1.857825 -10.548502
			CHANNELS 3 Zrotation Yrotation Xrotation
			JOINT RightLeg
			{
				OFFSET 43.500038 -0.000023 0.000011
				CHANNELS 3 Zrotation Yrotation Xrotation
				JOINT RightFoot
				{
					OFFSET 42.372261 -0.000008 0.000011
					CHANNELS 3 Zrotation Yrotation Xrotation
					JOINT RightToe
					{
						OFFSET 17.299994 -0.000004 0.000002
						CHANNELS 3 Zrotation Yrotation Xrotation
						End Site
						{
							OFFSET 0.000000 0.000000 0.000000
						}
					}
				}
			}
		}
		JOINT Spine
		{
			OFFSET 6.901965 -2.603729 -0.000002
			CHANNELS 3 Zrotation Yrotation Xrotation
			JOINT Spine1
			{
				OFFSET 12.588101 -0.000004 0.000003
				CHANNELS 3 Zrotation Yrotation Xrotation
				JOINT Spine2
				{
					OFFSET 12.343205 0.000006 0.000001
					CHANNELS 3 Zrotation Yrotation Xrotation
					JOINT Neck
					{
						OFFSET 25.832897 -0.000008 -0.000001
						CHANNELS 3 Zrotation Yrotation Xrotation
						JOINT Head
						{
							OFFSET 11.766601 0.000009 -0.000008
							CHANNELS 3 Zrotation Yrotation Xrotation
							End Site
							{
								OFFSET 0.000000 0.000000 0.000000
							}
						}
					}
					JOINT LeftShoulder
					{
						OFFSET 19.745893 -1.480370 6.000097
						CHANNELS 3 Zrotation Yrotation Xrotation
						JOINT LeftArm
						{
							OFFSET 11.284136 -0.000006 -0.000021
							CHANNELS 3 Zrotation Yrotation Xrotation
							JOINT LeftForeArm
							{
								OFFSET 33.000042 0.000005 0.000030
								CHANNELS 3 Zrotation Yrotation Xrotation
								JOINT LeftHand
								{
									OFFSET 25.200008 0.000013 0.000010
									CHANNELS 3 Zrotation Yrotation Xrotation
									End Site
									{
										OFFSET 0.000000 0.000000 0.000000
									}
								}
							}
						}
					}
					JOINT RightShoulder
					{
						OFFSET 19.746088 -1.480379 -6.000076
						CHANNELS 3 Zrotation Yrotation Xrotation
						JOINT RightArm
						{
							OFFSET 11.284133 -0.000016 -0.000013
							CHANNELS 3 Zrotation Yrotation Xrotation
							JOINT RightForeArm
							{
								OFFSET 33.000095 0.000019 0.000001
								CHANNELS 3 Zrotation Yrotation Xrotation
								JOINT RightHand
								{
									OFFSET 25.199785 0.000138 0.000422
									CHANNELS 3 Zrotation Yrotation Xrotation
									End Site
									{
										OFFSET 0.000000 0.000000 0.000000
									}
								}
							}
						}
					}
				}
			}
		}
	}
}
MOTION
Frames: 14
Frame Time: 0.016667
-283.997873 0.000000 -556.939395 0.000000 -3.326515 0.000000 -1.474561 81.787910 -4.600470 94.311526 -9.549749 179.129787 164.668580 -11.429703 177.378455 -48.994411 -4.736113 5.557946 90.386870 -5.820058 -12.922301 21.454553 0.003109 0.000017 151.357797 12.832198 -174.833185 -79.035786 0.008860 14.024057 81.517842 -7.204877 11.630718 21.454543 -0.003100 -0.000002 10.080082 -0.366970 -0.771363 10.152059 -0.664769 -1.571945 9.834067 -0.674386 -1.567911 3.672339 0.446247 3.102443 -22.084090 -8.839827 6.974660 -155.673889 -67.864982 -26.487099 20.688300 55.173962 21.102592 -109.812994 1.337600 3.135642 -19.865622 -13.521582 38.150024 -167.284692 71.844011 14.499691 12.627561 -65.725623 -27.366834 -114.383299 0.673399 -3.422076 -3.022835 2.759353 -44.082272 
-283.755550 0.000000 -556.943353 0.000000 -3.223492 0.000000 -1.781320 83.566066 -4.071674 93.426208 -8.549877 179.836298 165.308336 -11.962946 178.151083 -44.783742 -4.751820 4.896870 86.127348 -5.863572 -12.874026 21.454555 0.003109 0.000017 151.515705 13.408419 -174.207597 -76.928193 1.049170 11.545166 77.927527 -5.219047 11.480522 21.454547 -0.003096 -0.000001 9.969596 -0.194979 -0.867337 9.928783 -0.314757 -1.748169 9.610845 -0.325443 -1.746245 2.661871 1.011109 3.089549 -21.624886 -8.522895 6.875162 -155.219124 -68.116296 -26.951640 21.376445 55.492864 22.867676 -110.375466 1.442918 3.152547 -20.192736 -14.432327 37.147267 -167.167542 72.027715 14.619661 14.496798 -65.503160 -31.119173 -114.908696 0.490654 -3.431902 -2.932234 2.943544 -41.206454 
-283.513336 0.000000 -556.857019 0.000000 -3.159951 0.000000 -2.138795 85.332527 -3.607655 92.600529 -7.568140 -179.634542 166.011026 -12.459701 178.959754 -40.523392 -4.735935 4.049095 81.443134 -5.781981 -12.630010 21.454558 0.003108 0.000017 151.606115 13.950699 -173.822249 -74.841537 1.947298 8.620432 75.096262 -3.123132 10.685565 21.454551 -0.003093 0.000001 9.908503 -0.039796 -0.895987 9.804188 -0.003483 -1.792085 9.486265 -0.014438 -1.792039 1.381462 1.486880 2.959286 -20.933253 -8.207228 6.634800 -155.000296 -68.608202 -27.166421 21.595966 55.975061 24.209364 -110.822318 1.548134 3.164878 -20.230800 -15.247859 36.082601 -167.240801 72.363214 14.543287 14.601688 -64.658277 -32.956826 -115.547211 0.341167 -3.447870 -2.864130 2.408489 -39.193411 
-283.273904 0.000000 -556.703570 0.000000 -3.139099 0.000000 -2.510390 86.946168 -3.214931 91.816150 -6.589709 -179.230896 166.628050 -12.953910 179.694650 -36.597742 -4.604727 3.129330 76.927564 -5.532090 -12.125288 21.454558 0.003108 0.000017 151.592844 14.465828 -173.649070 -72.881384 2.633292 5.163457 73.824324 -0.937160 9.340804 21.454546 -0.003093 0.000001 9.860785 0.105677 -0.859059 9.706650 0.283086 -1.706197 9.388702 0.272643 -1.707882 0.284178 2.091848 2.672525 -20.294173 -8.172061 6.385572 -155.447494 -69.387124 -26.686980 21.606721 56.478971 25.216361 -111.369199 1.667029 3.180550 -19.568025 -15.920552 35.133046 -167.704935 72.743457 14.065262 13.884110 -63.416558 -33.481981 -116.194224 0.290023 -3.470882 -3.001795 1.128173 -38.831285 
-283.042882 0.000000 -556.500851 0.000000 -3.168057 0.000000 -2.892280 88.367073 -2.870673 91.016566 -5.658330 -178.918957 167.040186 -13.529798 -179.804429 -33.188517 -4.513396 2.242279 72.809829 -5.188632 -11.557102 21.454557 0.003108 0.000017 151.455551 14.960604 -173.638025 -70.980916 3.098531 1.971555 73.887551 1.011512 8.197643 21.454543 -0.003094 -0.000000 9.811037 0.237771 -0.773885 9.605748 0.538995 -1.525349 9.287754 0.529638 -1.528582 -0.685544 2.736032 2.291921 -19.789657 -8.239881 6.110373 -156.556213 -70.283504 -25.524503 21.317412 56.831786 25.871231 -111.948992 1.774607 3.197888 -18.706399 -16.382709 34.169765 -168.497720 73.084810 13.250418 12.779968 -61.855468 -33.304336 -116.860998 0.263988 -3.497220 -3.200857 -0.023031 -39.501954 
-282.831382 0.000000 -556.253161 0.000000 -3.251922 0.000000 -3.280773 89.582838 -2.563483 90.165053 -4.831770 -178.668038 167.166260 -14.227676 -179.641189 -30.427338 -4.633789 1.415396 69.244159 -4.831111 -11.123902 21.454556 0.003108 0.000017 151.199071 15.464011 -173.745170 -69.034935 3.334039 -0.105757 74.761791 2.370575 7.948967 21.454549 -0.003093 -0.000000 9.752876 0.350069 -0.665310 9.488827 0.753540 -1.299679 9.170787 0.745543 -1.304211 -1.661411 3.282980 1.893406 -19.417512 -8.200873 5.780135 -158.102390 -71.120077 -23.915991 20.602068 56.920029 26.148866 -112.466459 1.849724 3.214736 -18.184435 -16.589894 33.088926 -169.484622 73.372981 12.237249 11.535481 -60.069698 -32.919058 -117.566422 0.182921 -3.521096 -3.343109 -0.238416 -40.397412 
-282.646679 0.000000 -555.973746 0.000000 -3.390571 0.000000 -3.659869 90.589897 -2.298321 89.340764 -4.169587 -178.432237 167.042112 -14.869293 -179.643537 -28.462690 -4.928547 0.458433 66.453122 -4.319948 -10.833629 21.454558 0.003108 0.000017 150.909819 16.095795 -173.973347 -67.007454 3.419845 -0.909241 75.500610 3.056509 8.507112 21.454555 -0.003092 0.000000 9.695721 0.435866 -0.572609 9.374440 0.916707 -1.108048 9.056367 0.909864 -1.113570 -2.592291 3.714380 1.497071 -19.028791 -8.175680 5.442556 -159.499519 -71.922824 -22.465205 19.559497 56.894333 26.109517 -112.996586 1.925935 3.232439 -17.765102 -16.550991 32.136309 -170.610666 73.846314 11.082725 10.311265 -58.346069 -32.514466 -118.244289 0.077120 -3.541341 -3.581097 0.111507 -41.306907 
-282.487332 0.000000 -555.691445 0.000000 -3.579645 0.000000 -4.019607 91.378277 -2.064358 88.633623 -3.706978 -178.166923 166.723025 -15.288767 -179.670609 -27.428204 -5.285431 -0.731770 64.667154 -3.564189 -10.688720 21.454563 0.003108 0.000017 150.673575 16.965627 -174.337363 -64.904606 3.445628 -0.546021 75.316677 3.101635 9.497794 21.454549 -0.003092 -0.000001 9.653273 0.493420 -0.528529 9.289508 1.027692 -1.015777 8.971415 1.021403 -1.021971 -3.421475 4.019143 1.121789 -18.488962 -8.273052 5.139149 -160.252241 -72.729415 -21.679596 18.301931 56.882524 25.795435 -113.620665 2.035741 3.251734 -17.150843 -16.289092 31.552866 -171.956879 74.670103 9.705909 9.202088 -56.899703 -32.118730 -118.849492 -0.007623 -3.560097 -4.014806 0.459844 -42.187382 
-282.352673 0.000000 -555.422957 0.000000 -3.811663 0.000000 -4.358002 91.903542 -1.837422 88.060876 -3.379158 -177.851661 166.240698 -15.583696 -179.979801 -27.375585 -5.536847 -1.743531 64.059175 -2.914345 -10.804579 21.454568 0.003107 0.000017 150.496879 18.051194 -174.853020 -62.776944 3.460011 0.473435 74.613136 2.658037 10.263822 21.454545 -0.003092 -0.000001 9.640962 0.541507 -0.525442 9.264610 1.123357 -1.005886 8.946503 1.117125 -1.012658 -4.252819 4.093421 0.835939 -17.878210 -8.227087 4.822356 -160.860994 -73.355121 -21.046016 16.786905 56.659778 25.115103 -114.275006 2.152380 3.271396 -16.582929 -15.865182 31.222112 -173.793180 75.461190 7.831198 8.274767 -55.459314 -31.585376 -119.506303 -0.074126 -3.582447 -4.343521 0.654065 -43.076558 
-282.244844 0.000000 -555.160238 0.000000 -4.075320 0.000000 -4.670435 92.128676 -1.617183 87.626972 -3.095173 -177.488532 165.658739 -15.909139 179.194634 -28.255387 -5.554150 -2.152688 64.583642 -2.727140 -11.241811 21.454567 0.003107 0.000017 150.384296 19.275369 -175.516280 -60.653484 3.496439 1.648225 73.976369 1.878431 10.300997 21.454552 -0.003089 -0.000000 9.671077 0.601896 -0.543401 9.324254 1.245634 -1.036586 9.006133 1.239215 -1.044096 -5.176303 3.898604 0.684072 -17.329900 -7.824778 4.461342 -161.884727 -73.657093 -19.992091 15.008924 56.050650 24.051783 -114.869246 2.239491 3.290587 -16.349115 -15.351763 30.987366 -176.066150 75.834909 5.510580 7.589638 -53.767910 -30.816647 -120.299404 -0.135632 -3.610435 -4.292187 0.675533 -43.981447 
-282.162125 0.000000 -554.889539 0.000000 -4.359582 0.000000 -4.943873 92.080803 -1.428662 87.354194 -2.758002 -177.124199 165.180967 -16.363298 178.108507 -29.661356 -5.405573 -1.996488 65.386629 -2.970073 -11.781161 21.454563 0.003107 0.000017 150.418031 20.474001 -176.239918 -58.445074 3.443034 2.904656 73.479277 0.919505 9.976290 21.454562 -0.003086 0.000001 9.741403 0.687586 -0.553517 9.464211 1.418151 -1.049009 9.146064 1.411654 -1.057561 -6.069755 3.747353 0.553773 -16.957586 -7.439995 4.153291 -162.835206 -73.927798 -19.014489 13.107318 55.451357 22.855286 -115.351307 2.281840 3.308120 -16.389220 -14.822781 30.906622 -177.761588 75.987605 3.779796 7.062208 -52.118324 -29.943473 -120.985694 -0.197580 -3.633718 -4.085402 0.589798 -44.715086 
-282.099549 0.000000 -554.605916 0.000000 -4.656332 0.000000 -5.173180 91.785745 -1.287756 87.230297 -2.297828 -176.804964 164.945325 -16.994853 177.092527 -31.170926 -5.185688 -1.468657 65.805218 -3.490954 -12.222308 21.454558 0.003107 0.000017 150.622430 21.515084 -176.957470 -56.105366 3.186969 4.236630 73.077772 -0.062482 9.767701 21.454561 -0.003086 0.000001 9.839279 0.804990 -0.533668 9.659510 1.651729 -0.998357 9.341314 1.645534 -1.008322 -6.806436 3.922746 0.331551 -16.825980 -7.438047 3.983292 -163.175938 -74.446313 -18.660087 11.178794 55.247432 21.705288 -115.688241 2.279464 3.322475 -16.563297 -14.347445 31.036535 -178.124417 76.197473 3.412086 6.604071 -50.823805 -29.114883 -121.327077 -0.255196 -3.643360 -3.997861 0.473548 -45.121695 
-282.054255 0.000000 -554.309478 0.000000 -4.961343 0.000000 -5.382411 91.199966 -1.184181 87.083192 -1.754528 -176.539149 164.685396 -17.759202 176.296854 -32.669562 -4.931233 -0.930940 66.749997 -3.975046 -12.719860 21.454557 0.003108 0.000017 150.676854 22.471604 -177.796081 -53.854634 2.801450 5.519827 72.821884 -0.968301 9.732080 21.454555 -0.003088 0.000001 9.924536 0.943205 -0.497960 9.829904 1.925311 -0.914090 9.511647 1.919619 -0.925711 -7.446960 4.250419 0.097032 -16.851584 -7.555127 3.892886 -163.132374 -74.958802 -18.699703 9.328500 55.175946 20.568441 -115.885401 2.272478 3.331286 -16.766936 -13.981279 31.207929 -177.918778 76.390115 3.624824 6.375667 -49.729647 -28.422667 -121.433195 -0.272459 -3.646492 -3.995320 0.401971 -45.363414 
-282.025570 0.000000 -553.996408 0.000000 -5.274027 0.000000 -5.591031 90.296951 -1.099163 86.767871 -1.208202 -176.330093 164.130656 -18.595455 175.733877 -34.144074 -4.653756 -0.635054 69.170964 -4.156905 -13.424158 21.454559 0.003108 0.000017 150.286362 23.453843 -178.899651 -51.886081 2.394009 6.622424 72.745779 -1.721529 9.811809 21.454552 -0.003090 0.000000 9.968368 1.082794 -0.465900 9.917662 2.201539 -0.837391 9.599344 2.196304 -0.850684 -8.092235 4.546008 -0.048761 -16.917015 -7.500198 3.828939 -163.099946 -75.191329 -18.730702 7.697647 54.917294 19.416369 -115.976736 2.297456 3.333407 -16.931045 -13.777343 31.255434 -178.027116 76.425722 3.514637 6.508155 -48.641533 -27.881973 -121.463503 -0.224143 -3.651158 -3.957344 0.432743 -45.705957 
